<?xml version="1.0" standalone="no"?>
<!DOCTYPE svg PUBLIC "-//W3C//DTD SVG 20010904//EN"
 "http://www.w3.org/TR/2001/REC-SVG-20010904/DTD/svg10.dtd">
<svg version="1.0" xmlns="http://www.w3.org/2000/svg"
 width="1280.000000pt" height="1024.000000pt" viewBox="0 0 1280.000000 1024.000000"
 preserveAspectRatio="xMidYMid meet">
<metadata>
Created by potrace 1.15, written by Peter Selinger 2001-2017
</metadata>
<g transform="translate(0.000000,1024.000000) scale(0.100000,-0.100000)"
fill="#000000" stroke="none">
<path d="M2653 9843 c9 -2 25 -2 35 0 9 3 1 5 -18 5 -19 0 -27 -2 -17 -5z"/>
<path d="M10153 9843 c9 -2 25 -2 35 0 9 3 1 5 -18 5 -19 0 -27 -2 -17 -5z"/>
<path d="M2571 9811 c-17 -16 -31 -33 -31 -38 0 -4 8 2 18 14 9 12 31 29 47
37 17 9 23 16 14 16 -9 0 -31 -13 -48 -29z"/>
<path d="M2718 9833 c7 -3 16 -2 19 1 4 3 -2 6 -13 5 -11 0 -14 -3 -6 -6z"/>
<path d="M10237 9820 c66 -40 84 -132 37 -192 l-26 -33 31 33 c35 37 42 92 16
142 -16 30 -60 70 -79 70 -6 0 3 -9 21 -20z"/>
<path d="M10026 9790 l-43 -40 -647 0 c-568 0 -646 -2 -646 -15 0 -13 78 -15
641 -15 581 0 641 -1 635 -16 -3 -9 -6 -20 -6 -25 0 -5 -256 -9 -635 -9 -558
0 -635 -2 -635 -15 0 -13 77 -15 630 -15 l629 0 4 -57 3 -58 2 66 c3 106 38
179 106 220 17 10 25 19 18 19 -7 0 -32 -18 -56 -40z"/>
<path d="M2792 9798 c15 -13 39 -43 53 -68 15 -25 24 -37 21 -27 -5 16 30 17
639 17 567 0 645 2 645 15 0 13 -79 15 -655 15 -627 0 -655 1 -664 19 -6 10
-23 26 -38 35 l-28 17 27 -23z"/>
<path d="M2522 9705 c0 -16 2 -22 5 -12 2 9 2 23 0 30 -3 6 -5 -1 -5 -18z"/>
<path d="M2870 9658 c0 -17 37 -18 640 -18 559 0 640 2 640 15 0 13 -82 15
-640 17 -604 3 -640 2 -640 -14z"/>
<path d="M2530 9662 c0 -17 55 -72 72 -72 7 1 1 7 -14 16 -15 8 -34 27 -42 42
-9 15 -15 21 -16 14z"/>
<path d="M2655 9589 c-37 -6 -38 -6 -8 -8 26 -1 34 -6 39 -27 9 -34 -9 -110
-24 -106 -7 1 -12 -6 -12 -16 0 -10 -3 -22 -7 -28 -5 -5 4 3 19 18 38 38 62
134 40 163 -4 6 -24 7 -47 4z"/>
<path d="M10132 9528 c2 -37 9 -73 15 -79 7 -7 9 9 5 60 l-5 70 39 3 c39 3 39
3 -9 8 l-49 5 4 -67z"/>
<path d="M2479 9543 c-15 -14 -45 -42 -68 -63 -22 -21 -41 -46 -41 -56 0 -11
-13 -25 -33 -34 -23 -11 -31 -21 -29 -35 2 -11 6 -35 9 -53 9 -55 -42 -105
-130 -126 l-28 -7 17 26 c9 14 14 28 11 31 -3 3 -8 -4 -12 -15 -8 -27 -54 -58
-101 -71 -36 -9 -35 -9 17 -5 31 3 86 14 122 25 108 33 157 113 110 179 -15
23 -15 25 3 38 10 8 31 13 45 11 19 -3 25 0 22 9 -9 23 18 72 51 95 40 28 88
78 73 77 -7 -1 -24 -13 -38 -26z"/>
<path d="M10274 9548 c-17 -14 -40 -22 -58 -20 -17 1 -24 -1 -16 -5 8 -3 25
-15 38 -26 l22 -20 0 26 c0 15 9 32 22 41 28 20 48 20 48 2 0 -8 16 -24 35
-36 46 -29 75 -67 75 -100 0 -24 3 -27 26 -22 22 4 24 6 10 14 -9 5 -16 17
-16 27 0 23 -34 60 -82 90 -21 12 -38 29 -38 37 0 21 -34 17 -66 -8z"/>
<path d="M2558 9537 c12 -13 22 -32 22 -42 0 -17 2 -17 16 4 11 15 23 21 35
18 11 -3 16 -1 13 5 -4 5 -20 7 -36 4 -20 -4 -30 -1 -34 8 -3 8 -13 17 -22 21
-12 4 -10 -1 6 -18z"/>
<path d="M2872 9530 c0 -14 2 -19 5 -12 2 6 2 18 0 25 -3 6 -5 1 -5 -13z"/>
<path d="M9961 9504 c0 -11 3 -14 6 -6 3 7 2 16 -1 19 -3 4 -6 -2 -5 -13z"/>
<path d="M2651 9484 c0 -11 3 -14 6 -6 3 7 2 16 -1 19 -3 4 -6 -2 -5 -13z"/>
<path d="M2143 9484 c3 -4 2 -14 -3 -24 -7 -12 -27 -19 -70 -23 -33 -3 -68
-11 -76 -18 -11 -9 -18 -9 -26 -1 -22 22 -26 12 -5 -12 19 -22 23 -23 41 -10
11 8 39 14 61 14 44 0 85 22 85 46 0 21 18 17 25 -7 4 -11 9 -18 12 -15 8 8
-25 56 -39 56 -6 0 -8 -3 -5 -6z"/>
<path d="M10168 9460 c-5 -27 -1 -39 14 -55 12 -11 17 -13 12 -5 -4 8 -11 33
-14 55 l-6 40 -6 -35z"/>
<path d="M10662 9465 c-12 -15 -22 -33 -22 -39 1 -6 8 2 17 18 14 27 16 28 25
10 17 -32 40 -44 83 -44 22 0 50 -7 62 -15 20 -14 24 -13 47 10 14 14 22 25
18 25 -5 0 -12 -4 -18 -10 -6 -6 -24 -4 -49 5 -22 8 -59 14 -82 15 -36 0 -43
4 -50 27 l-9 26 -22 -28z"/>
<path d="M9970 9475 c0 -5 5 -17 10 -25 5 -8 10 -10 10 -5 0 6 -5 17 -10 25
-5 8 -10 11 -10 5z"/>
<path d="M2846 9455 c-9 -26 -7 -32 5 -12 6 10 9 21 6 23 -2 3 -7 -2 -11 -11z"/>
<path d="M1908 9433 c7 -3 16 -2 19 1 4 3 -2 6 -13 5 -11 0 -14 -3 -6 -6z"/>
<path d="M10918 9433 c7 -3 16 -2 19 1 4 3 -2 6 -13 5 -11 0 -14 -3 -6 -6z"/>
<path d="M1856 9417 c-10 -7 -30 -38 -44 -68 -32 -64 -75 -92 -167 -108 -82
-14 -649 -15 -678 0 -19 9 -20 8 -7 -3 8 -8 21 -20 29 -28 8 -8 11 -10 7 -3
-5 9 80 12 341 16 365 4 405 8 452 50 13 12 36 50 51 83 16 34 34 64 42 67 7
3 8 6 2 6 -5 1 -18 -5 -28 -12z"/>
<path d="M9990 9421 c0 -6 4 -13 10 -16 6 -3 7 1 4 9 -7 18 -14 21 -14 7z"/>
<path d="M10961 9414 c8 -9 27 -44 44 -78 53 -107 92 -116 527 -116 l306 0 -4
-22 -5 -23 10 22 c6 13 25 32 43 43 18 11 28 20 23 20 -6 0 -21 -7 -33 -16
-20 -13 -65 -15 -360 -12 -291 3 -343 6 -382 21 -53 21 -94 58 -111 101 -14
35 -47 76 -62 76 -5 0 -3 -7 4 -16z"/>
<path d="M2192 9390 c0 -19 2 -27 5 -17 2 9 2 25 0 35 -3 9 -5 1 -5 -18z"/>
<path d="M2810 9380 c-6 -11 -8 -20 -6 -20 3 0 10 9 16 20 6 11 8 20 6 20 -3
0 -10 -9 -16 -20z"/>
<path d="M10027 9361 c10 -18 43 -59 74 -90 31 -31 72 -64 90 -74 30 -16 31
-16 9 0 -14 9 -54 46 -91 82 -36 37 -73 77 -82 91 -16 22 -16 21 0 -9z"/>
<path d="M10512 9375 c16 -17 16 -21 3 -35 -47 -52 -16 -127 68 -165 55 -25
177 -51 199 -42 7 3 3 6 -10 6 -81 3 -161 118 -104 150 16 9 16 11 -2 28 -10
10 -16 13 -12 6 3 -6 2 -14 -4 -18 -18 -11 -11 -81 11 -109 24 -30 19 -32 -44
-10 -52 18 -107 73 -107 107 0 12 7 32 15 44 13 19 12 22 -8 39 -22 18 -22 18
-5 -1z"/>
<path d="M10641 9354 c0 -11 3 -14 6 -6 3 7 2 16 -1 19 -3 4 -6 -2 -5 -13z"/>
<path d="M2168 9321 c-14 -25 -14 -30 -2 -35 8 -3 19 -16 24 -28 9 -20 10 -19
4 7 -3 17 -6 42 -6 58 -1 15 -1 27 -2 27 -1 0 -8 -13 -18 -29z"/>
<path d="M2730 9281 c-45 -46 -89 -79 -142 -106 -42 -22 -75 -41 -73 -43 8 -9
145 72 192 114 42 36 104 107 91 103 -2 0 -32 -31 -68 -68z"/>
<path d="M798 9263 c12 -2 30 -2 40 0 9 3 -1 5 -23 4 -22 0 -30 -2 -17 -4z"/>
<path d="M873 9263 c9 -2 23 -2 30 0 6 3 -1 5 -18 5 -16 0 -22 -2 -12 -5z"/>
<path d="M11933 9263 c9 -2 23 -2 30 0 6 3 -1 5 -18 5 -16 0 -22 -2 -12 -5z"/>
<path d="M12003 9263 c9 -2 25 -2 35 0 9 3 1 5 -18 5 -19 0 -27 -2 -17 -5z"/>
<path d="M12068 9253 c7 -3 16 -2 19 1 4 3 -2 6 -13 5 -11 0 -14 -3 -6 -6z"/>
<path d="M704 9234 c-18 -14 -18 -14 6 -3 31 14 36 19 24 19 -6 0 -19 -7 -30
-16z"/>
<path d="M12162 9200 c25 -21 51 -53 58 -70 7 -17 15 -29 17 -26 14 13 -88
136 -113 136 -4 0 13 -18 38 -40z"/>
<path d="M649 9193 l-24 -28 28 24 c25 23 32 31 24 31 -2 0 -14 -12 -28 -27z"/>
<path d="M1002 9165 c0 -16 2 -22 5 -12 2 9 2 23 0 30 -3 6 -5 -1 -5 -18z"/>
<path d="M10230 9175 c0 -7 61 -37 66 -33 2 3 -12 12 -31 21 -19 9 -35 15 -35
12z"/>
<path d="M605 9129 c-9 -17 -15 -34 -13 -39 2 -5 11 9 20 30 20 47 15 53 -7 9z"/>
<path d="M11831 9139 c-1 -9 6 -22 14 -29 11 -9 12 -15 5 -20 -6 -4 3 -7 21
-7 l31 0 -26 14 c-15 8 -31 24 -36 36 -6 15 -9 17 -9 6z"/>
<path d="M968 9106 c-27 -24 -27 -24 -3 -22 13 0 21 5 18 9 -3 4 1 14 7 22 18
22 9 18 -22 -9z"/>
<path d="M2470 9120 c-8 -5 -10 -10 -5 -10 6 0 17 5 25 10 8 5 11 10 5 10 -5
0 -17 -5 -25 -10z"/>
<path d="M1023 9113 c9 -2 25 -2 35 0 9 3 1 5 -18 5 -19 0 -27 -2 -17 -5z"/>
<path d="M11773 9113 c9 -2 25 -2 35 0 9 3 1 5 -18 5 -19 0 -27 -2 -17 -5z"/>
<path d="M1123 9103 c9 -2 25 -2 35 0 9 3 1 5 -18 5 -19 0 -27 -2 -17 -5z"/>
<path d="M2428 9103 c7 -3 16 -2 19 1 4 3 -2 6 -13 5 -11 0 -14 -3 -6 -6z"/>
<path d="M11683 9103 c9 -2 25 -2 35 0 9 3 1 5 -18 5 -19 0 -27 -2 -17 -5z"/>
<path d="M1213 9093 c9 -2 25 -2 35 0 9 3 1 5 -18 5 -19 0 -27 -2 -17 -5z"/>
<path d="M10428 9093 c7 -3 16 -2 19 1 4 3 -2 6 -13 5 -11 0 -14 -3 -6 -6z"/>
<path d="M11583 9093 c9 -2 25 -2 35 0 9 3 1 5 -18 5 -19 0 -27 -2 -17 -5z"/>
<path d="M1320 9074 c56 -17 55 -17 36 1 -8 8 -30 15 -48 14 -32 0 -32 -1 12
-15z"/>
<path d="M2358 9083 c7 -3 16 -2 19 1 4 3 -2 6 -13 5 -11 0 -14 -3 -6 -6z"/>
<path d="M10468 9083 c7 -3 16 -2 19 1 4 3 -2 6 -13 5 -11 0 -14 -3 -6 -6z"/>
<path d="M11490 9080 c0 -11 14 -11 50 0 22 7 21 8 -12 9 -21 1 -38 -3 -38 -9z"/>
<path d="M12241 9074 c0 -11 3 -14 6 -6 3 7 2 16 -1 19 -3 4 -6 -2 -5 -13z"/>
<path d="M750 9050 c19 -15 47 -43 62 -61 21 -25 26 -28 21 -10 -3 12 -24 36
-47 54 -22 17 -42 35 -44 39 -2 5 -9 8 -15 8 -7 0 4 -14 23 -30z"/>
<path d="M858 9070 c13 -6 31 -6 45 0 18 7 14 9 -23 9 -37 0 -41 -2 -22 -9z"/>
<path d="M1001 9076 c10 -9 129 -66 129 -61 0 5 -116 65 -126 65 -4 0 -5 -2
-3 -4z"/>
<path d="M1408 9073 c12 -2 30 -2 40 0 9 3 -1 5 -23 4 -22 0 -30 -2 -17 -4z"/>
<path d="M2308 9073 c7 -3 16 -2 19 1 4 3 -2 6 -13 5 -11 0 -14 -3 -6 -6z"/>
<path d="M10508 9073 c6 -2 18 -2 25 0 6 3 1 5 -13 5 -14 0 -19 -2 -12 -5z"/>
<path d="M11393 9073 c9 -2 25 -2 35 0 9 3 1 5 -18 5 -19 0 -27 -2 -17 -5z"/>
<path d="M11918 9073 c7 -3 16 -2 19 1 4 3 -2 6 -13 5 -11 0 -14 -3 -6 -6z"/>
<path d="M11950 9071 c0 -5 9 -7 20 -4 11 3 20 7 20 9 0 2 -9 4 -20 4 -11 0
-20 -4 -20 -9z"/>
<path d="M12090 9072 c0 -4 -30 -30 -66 -57 -76 -57 -240 -226 -268 -276 -23
-42 -13 -31 43 43 53 70 188 201 201 193 5 -3 14 4 20 15 6 11 29 34 52 50 30
22 45 27 58 20 26 -14 43 -64 36 -105 -6 -30 -10 -35 -27 -30 -20 7 -20 6 -3
-14 22 -25 40 -14 49 30 9 39 -11 94 -42 119 -26 20 -53 27 -53 12z"/>
<path d="M581 9054 c0 -11 3 -14 6 -6 3 7 2 16 -1 19 -3 4 -6 -2 -5 -13z"/>
<path d="M1503 9063 c9 -2 25 -2 35 0 9 3 1 5 -18 5 -19 0 -27 -2 -17 -5z"/>
<path d="M2243 9063 c9 -2 23 -2 30 0 6 3 -1 5 -18 5 -16 0 -22 -2 -12 -5z"/>
<path d="M10568 9063 c6 -2 18 -2 25 0 6 3 1 5 -13 5 -14 0 -19 -2 -12 -5z"/>
<path d="M11298 9063 c12 -2 30 -2 40 0 9 3 -1 5 -23 4 -22 0 -30 -2 -17 -4z"/>
<path d="M11768 9054 c-39 -21 -35 -28 5 -8 37 19 44 24 31 24 -5 -1 -21 -8
-36 -16z"/>
<path d="M666 9031 c-21 -40 -20 -103 2 -130 l17 -21 11 23 c9 20 8 24 -5 23
-11 -1 -17 9 -19 33 -5 52 5 81 26 75 10 -4 13 -2 7 3 -5 4 -13 12 -17 17 -3
4 -14 -6 -22 -23z"/>
<path d="M1434 9036 c33 -14 62 -23 65 -21 2 3 -2 5 -10 5 -12 0 -11 2 1 11
13 9 13 10 -1 6 -9 -3 -20 -2 -25 3 -5 4 -27 10 -49 14 -37 6 -35 5 19 -18z"/>
<path d="M1598 9053 c12 -2 30 -2 40 0 9 3 -1 5 -23 4 -22 0 -30 -2 -17 -4z"/>
<path d="M2158 9053 c12 -2 30 -2 40 0 9 3 -1 5 -23 4 -22 0 -30 -2 -17 -4z"/>
<path d="M10648 9053 c12 -2 30 -2 40 0 9 3 -1 5 -23 4 -22 0 -30 -2 -17 -4z"/>
<path d="M11203 9053 c9 -2 25 -2 35 0 9 3 1 5 -18 5 -19 0 -27 -2 -17 -5z"/>
<path d="M11403 9053 c-12 -2 -27 -11 -33 -18 -10 -12 -3 -11 36 2 27 9 51 17
53 19 5 5 -26 3 -56 -3z"/>
<path d="M11863 9029 c-35 -16 -63 -31 -63 -34 0 -3 9 -1 19 5 34 18 30 11
-33 -53 -34 -34 -72 -78 -85 -97 -14 -21 -7 -15 20 15 65 76 150 155 189 175
54 29 22 22 -47 -11z"/>
<path d="M967 9012 c58 -47 126 -120 172 -184 19 -27 36 -48 38 -48 13 0 -60
95 -126 163 -58 60 -60 67 -11 42 17 -9 30 -13 30 -10 0 9 -77 44 -84 38 -3
-4 -6 -2 -6 4 0 9 -41 33 -56 33 -3 0 16 -17 43 -38z"/>
<path d="M1705 9045 c25 -9 145 -12 145 -4 0 5 -35 9 -77 8 -43 0 -73 -2 -68
-4z"/>
<path d="M1918 9043 c34 -2 88 -2 120 0 31 2 3 3 -63 3 -66 0 -92 -1 -57 -3z"/>
<path d="M10798 9043 c34 -2 88 -2 120 0 31 2 3 3 -63 3 -66 0 -92 -1 -57 -3z"/>
<path d="M10971 9033 c-12 -14 -11 -14 10 -7 13 4 56 11 94 14 l70 7 -80 1
c-61 1 -83 -2 -94 -15z"/>
<path d="M12085 9009 c-33 -30 -66 -77 -65 -96 1 -4 8 6 17 22 21 41 43 65 78
86 17 11 25 19 18 19 -7 0 -28 -14 -48 -31z"/>
<path d="M12253 8990 c0 -30 2 -43 4 -27 2 15 2 39 0 55 -2 15 -4 2 -4 -28z"/>
<path d="M746 9004 c46 -43 67 -91 71 -164 7 -109 -44 -171 -118 -143 -26 10
-32 9 -49 -10 -11 -11 -20 -25 -20 -30 0 -5 9 1 21 14 15 17 22 20 26 11 19
-46 110 -27 139 30 45 88 -1 268 -79 310 -15 8 -12 2 9 -18z"/>
<path d="M1542 9016 c80 -31 219 -109 262 -147 51 -45 86 -97 86 -126 0 -20
45 -73 62 -73 5 0 -3 11 -18 24 -22 18 -28 33 -29 65 -1 34 -8 48 -43 84 -65
66 -244 165 -327 181 -25 5 -24 4 7 -8z"/>
<path d="M11658 8992 c-37 -21 -71 -42 -75 -47 -9 -10 127 63 142 76 17 16 1
9 -67 -29z"/>
<path d="M10928 9013 c7 -3 16 -2 19 1 4 3 -2 6 -13 5 -11 0 -14 -3 -6 -6z"/>
<path d="M11181 8980 c-97 -47 -201 -118 -230 -159 -13 -18 -21 -45 -21 -69 0
-32 -6 -45 -27 -62 -18 -13 -20 -17 -7 -11 28 13 40 30 48 66 19 79 115 163
268 235 45 21 76 39 68 39 -8 0 -53 -17 -99 -39z"/>
<path d="M11320 9010 c-8 -5 -10 -10 -5 -10 6 0 17 5 25 10 8 5 11 10 5 10 -5
0 -17 -5 -25 -10z"/>
<path d="M1140 9006 c0 -3 14 -12 30 -21 17 -9 30 -13 30 -11 0 3 -13 12 -30
21 -16 9 -30 13 -30 11z"/>
<path d="M1511 9006 c10 -9 89 -46 89 -41 0 5 -75 45 -86 45 -4 0 -5 -2 -3 -4z"/>
<path d="M10835 8985 c-25 -12 -26 -14 -5 -9 28 7 60 23 45 23 -5 0 -23 -6
-40 -14z"/>
<path d="M890 8940 c30 -29 77 -76 103 -104 l49 -51 -42 52 c-23 29 -70 75
-104 103 l-61 52 55 -52z"/>
<path d="M11743 8964 c-24 -14 -43 -27 -43 -30 0 -6 67 33 85 48 17 15 1 8
-42 -18z"/>
<path d="M11194 8944 c-75 -45 -148 -101 -198 -153 l-39 -39 26 -26 25 -25
-39 -25 c-21 -14 -43 -36 -49 -48 -10 -19 -8 -18 12 4 12 15 48 41 78 58 46
25 51 30 29 30 -15 0 -37 8 -49 18 l-22 18 58 54 c50 45 100 81 220 157 11 6
16 12 13 12 -3 1 -32 -15 -65 -35z"/>
<path d="M1085 8963 c6 -5 40 -31 77 -56 64 -45 122 -106 148 -156 9 -17 10
-50 6 -110 -7 -90 3 -130 34 -139 10 -3 8 1 -4 10 -15 12 -17 23 -12 59 20
144 20 146 -8 193 -26 45 -96 109 -176 163 -55 36 -79 50 -65 36z"/>
<path d="M1210 8965 c0 -7 141 -77 146 -73 2 2 -30 21 -71 41 -41 20 -75 35
-75 32z"/>
<path d="M2046 8955 c18 -13 17 -14 -14 -21 l-34 -7 25 -21 c14 -12 35 -37 46
-56 12 -19 21 -30 21 -24 0 6 -13 29 -28 50 l-28 39 20 17 c18 15 19 19 6 28
-23 15 -36 12 -14 -5z"/>
<path d="M1610 8957 c0 -2 27 -21 61 -42 58 -36 189 -150 189 -165 0 -10 -47
-30 -73 -31 -19 -1 -19 -2 7 -14 28 -12 31 -10 54 17 l25 29 -49 51 c-60 61
-214 173 -214 155z"/>
<path d="M10766 8952 c-3 -6 4 -18 16 -26 l22 -16 -21 -22 c-25 -28 -46 -68
-40 -75 3 -2 8 5 12 17 4 12 23 40 42 61 31 35 33 39 15 39 -12 0 -25 7 -30
16 -6 11 -12 13 -16 6z"/>
<path d="M581 8934 c0 -11 3 -14 6 -6 3 7 2 16 -1 19 -3 4 -6 -2 -5 -13z"/>
<path d="M840 8945 c0 -5 5 -17 10 -25 5 -8 10 -10 10 -5 0 6 -5 17 -10 25 -5
8 -10 11 -10 5z"/>
<path d="M11976 8925 c-9 -26 -7 -32 5 -12 6 10 9 21 6 23 -2 3 -7 -2 -11 -11z"/>
<path d="M741 8913 c7 -12 15 -20 18 -17 3 2 -3 12 -13 22 -17 16 -18 16 -5
-5z"/>
<path d="M11530 8920 c-9 -6 -10 -10 -3 -10 6 0 15 5 18 10 8 12 4 12 -15 0z"/>
<path d="M11655 8908 c-60 -42 -138 -124 -156 -163 -24 -51 -23 -76 1 -150
l21 -60 -6 92 c-7 116 5 144 106 237 76 70 82 78 34 44z"/>
<path d="M12085 8920 c-3 -6 1 -7 9 -4 18 7 21 14 7 14 -6 0 -13 -4 -16 -10z"/>
<path d="M590 8907 c0 -16 33 -58 54 -68 20 -10 20 -10 2 5 -11 9 -28 28 -38
43 -10 16 -18 24 -18 20z"/>
<path d="M12004 8864 c-4 -20 -4 -61 -1 -92 5 -43 12 -62 34 -83 42 -41 76
-46 107 -16 27 27 36 23 55 -24 7 -16 10 -18 10 -7 1 9 -10 30 -23 45 -20 22
-27 26 -37 16 -24 -24 -75 -15 -102 17 -31 36 -41 78 -32 136 8 53 -1 59 -11
8z"/>
<path d="M12071 8884 c0 -11 3 -14 6 -6 3 7 2 16 -1 19 -3 4 -6 -2 -5 -13z"/>
<path d="M1378 8883 c7 -3 16 -2 19 1 4 3 -2 6 -13 5 -11 0 -14 -3 -6 -6z"/>
<path d="M1463 8883 c9 -2 23 -2 30 0 6 3 -1 5 -18 5 -16 0 -22 -2 -12 -5z"/>
<path d="M11343 8883 c9 -2 23 -2 30 0 6 3 -1 5 -18 5 -16 0 -22 -2 -12 -5z"/>
<path d="M11438 8883 c7 -3 16 -2 19 1 4 3 -2 6 -13 5 -11 0 -14 -3 -6 -6z"/>
<path d="M11961 8874 c0 -11 3 -14 6 -6 3 7 2 16 -1 19 -3 4 -6 -2 -5 -13z"/>
<path d="M1524 8864 c25 -24 19 -59 -14 -87 -22 -19 -26 -26 -15 -31 8 -3 24
-20 35 -38 11 -18 20 -28 20 -22 0 6 -9 23 -21 37 l-20 27 20 22 c12 12 21 32
21 46 0 28 -17 62 -31 62 -6 0 -3 -7 5 -16z"/>
<path d="M11300 8865 c-7 -9 -11 -17 -9 -20 3 -2 10 5 17 15 14 24 10 26 -8 5z"/>
<path d="M12197 8855 c-15 -14 -24 -25 -19 -25 5 0 19 11 32 25 30 32 23 32
-13 0z"/>
<path d="M872 8850 c0 -14 2 -19 5 -12 2 6 2 18 0 25 -3 6 -5 1 -5 -13z"/>
<path d="M12080 8856 c0 -2 8 -10 18 -17 15 -13 16 -12 3 4 -13 16 -21 21 -21
13z"/>
<path d="M737 8844 c-3 -4 -21 -10 -39 -14 -29 -7 -30 -8 -7 -9 14 -1 34 6 45
14 10 8 16 15 13 15 -3 0 -8 -3 -12 -6z"/>
<path d="M11952 8830 c0 -14 2 -19 5 -12 2 6 2 18 0 25 -3 6 -5 1 -5 -13z"/>
<path d="M11286 8810 c3 -14 14 -34 24 -45 18 -19 18 -21 -6 -48 -13 -15 -24
-33 -24 -40 0 -7 6 -3 12 8 6 11 22 32 35 47 25 26 25 26 4 37 -11 6 -28 24
-36 39 -15 26 -16 26 -9 2z"/>
<path d="M12128 8823 c6 -2 18 -2 25 0 6 3 1 5 -13 5 -14 0 -19 -2 -12 -5z"/>
<path d="M882 8795 c0 -16 2 -22 5 -12 2 9 2 23 0 30 -3 6 -5 -1 -5 -18z"/>
<path d="M2093 8775 c0 -22 2 -30 4 -17 2 12 2 30 0 40 -3 9 -5 -1 -4 -23z"/>
<path d="M11942 8770 c0 -14 2 -19 5 -12 2 6 2 18 0 25 -3 6 -5 1 -5 -13z"/>
<path d="M1065 8743 c15 -24 30 -43 32 -43 7 0 -31 61 -46 73 -8 7 -2 -7 14
-30z"/>
<path d="M11624 8729 c-14 -28 -24 -53 -22 -55 2 -2 16 21 31 51 15 30 25 55
22 55 -3 0 -16 -23 -31 -51z"/>
<path d="M1202 8725 c12 -24 23 -43 26 -41 4 5 -36 86 -43 86 -3 0 5 -20 17
-45z"/>
<path d="M891 8734 c0 -11 3 -14 6 -6 3 7 2 16 -1 19 -3 4 -6 -2 -5 -13z"/>
<path d="M10740 8731 c0 -6 4 -13 10 -16 6 -3 7 1 4 9 -7 18 -14 21 -14 7z"/>
<path d="M2058 8698 c-15 -15 -23 -28 -19 -28 9 0 56 49 50 53 -2 1 -16 -10
-31 -25z"/>
<path d="M11931 8714 c0 -11 3 -14 6 -6 3 7 2 16 -1 19 -3 4 -6 -2 -5 -13z"/>
<path d="M10774 8686 c11 -9 24 -16 30 -16 12 0 7 5 -24 19 -24 11 -24 11 -6
-3z"/>
<path d="M11720 8679 c-7 -11 -10 -23 -7 -25 2 -2 9 7 15 21 14 30 7 33 -8 4z"/>
<path d="M1845 8684 c6 -5 26 -23 45 -39 l35 -30 -25 28 c-14 16 -34 33 -45
39 -11 6 -15 6 -10 2z"/>
<path d="M1232 8665 c0 -5 6 -26 13 -45 7 -19 14 -28 14 -20 0 8 -6 29 -14 45
-7 17 -13 26 -13 20z"/>
<path d="M1553 8635 c0 -22 2 -30 4 -17 2 12 2 30 0 40 -3 9 -5 -1 -4 -23z"/>
<path d="M1983 8663 c9 -2 23 -2 30 0 6 3 -1 5 -18 5 -16 0 -22 -2 -12 -5z"/>
<path d="M10833 8663 c9 -2 23 -2 30 0 6 3 -1 5 -18 5 -16 0 -22 -2 -12 -5z"/>
<path d="M11911 8649 c-1 -19 26 -45 36 -35 3 3 1 6 -6 6 -6 0 -16 10 -21 23
-6 15 -9 17 -9 6z"/>
<path d="M903 8631 c-13 -11 -22 -29 -22 -43 1 -20 2 -20 6 -3 3 11 14 30 26
43 25 27 20 28 -10 3z"/>
<path d="M11271 8634 c0 -11 3 -14 6 -6 3 7 2 16 -1 19 -3 4 -6 -2 -5 -13z"/>
<path d="M12176 8605 c-10 -8 -22 -13 -25 -11 -3 2 -6 -20 -7 -50 0 -53 0 -54
14 -28 8 14 11 35 8 46 -3 14 3 27 17 39 26 22 20 25 -7 4z"/>
<path d="M653 8600 c9 -6 17 -23 17 -37 0 -32 21 -93 32 -93 4 0 1 18 -8 41
-13 31 -14 46 -6 65 9 19 9 24 -2 24 -8 0 -23 3 -33 6 -17 5 -17 5 0 -6z"/>
<path d="M10896 8585 c-3 -9 -6 -26 -5 -38 1 -14 4 -9 9 13 9 37 7 52 -4 25z"/>
<path d="M1444 8560 c-1 -14 0 -20 3 -13 3 8 13 9 35 2 45 -12 45 -5 1 17
l-38 19 -1 -25z"/>
<path d="M1931 8574 c0 -11 3 -14 6 -6 3 7 2 16 -1 19 -3 4 -6 -2 -5 -13z"/>
<path d="M11355 8572 c-16 -10 -31 -17 -31 -17 -1 0 -5 -11 -9 -25 l-8 -25 19
23 c11 13 29 24 42 25 14 1 22 8 22 19 0 10 -1 18 -2 17 -2 0 -16 -8 -33 -17z"/>
<path d="M11681 8574 c0 -11 3 -14 6 -6 3 7 2 16 -1 19 -3 4 -6 -2 -5 -13z"/>
<path d="M1261 8564 c0 -11 3 -14 6 -6 3 7 2 16 -1 19 -3 4 -6 -2 -5 -13z"/>
<path d="M1152 8550 c0 -14 2 -19 5 -12 2 6 2 18 0 25 -3 6 -5 1 -5 -13z"/>
<path d="M11561 8554 c0 -11 3 -14 6 -6 3 7 2 16 -1 19 -3 4 -6 -2 -5 -13z"/>
<path d="M11950 8563 c0 -6 9 -21 21 -34 l20 -24 -17 30 c-24 39 -24 40 -24
28z"/>
<path d="M12022 8544 c-24 -27 -23 -51 6 -109 34 -70 88 -94 143 -64 15 8 25
7 37 -3 15 -12 16 -11 4 4 -10 12 -22 15 -41 12 -50 -10 -132 52 -147 111 -7
30 5 53 17 34 6 -10 9 -6 9 14 0 32 1 32 -28 1z"/>
<path d="M790 8554 c0 -4 7 -15 15 -24 13 -14 12 -21 -6 -58 -27 -54 -72 -86
-121 -87 -33 0 -36 -2 -21 -12 9 -7 34 -13 55 -13 48 0 78 27 104 95 10 28 29
58 41 68 13 10 23 24 23 30 0 6 -7 1 -16 -11 -19 -27 -24 -27 -52 -2 -12 12
-22 18 -22 14z"/>
<path d="M11672 8530 c0 -14 2 -19 5 -12 2 6 2 18 0 25 -3 6 -5 1 -5 -13z"/>
<path d="M1271 8524 c0 -11 3 -14 6 -6 3 7 2 16 -1 19 -3 4 -6 -2 -5 -13z"/>
<path d="M1943 8495 c0 -27 2 -38 4 -22 2 15 2 37 0 50 -2 12 -4 0 -4 -28z"/>
<path d="M11396 8526 c3 -8 13 -17 21 -20 25 -10 23 -3 -3 17 -18 13 -22 14
-18 3z"/>
<path d="M1416 8515 c-11 -8 -15 -15 -9 -15 6 0 16 7 23 15 16 19 11 19 -14 0z"/>
<path d="M1994 8508 c22 -31 20 -91 -3 -119 -16 -20 -21 -21 -35 -10 -10 8
-16 9 -16 3 0 -20 38 -34 60 -22 41 22 47 84 13 137 -11 17 -12 22 -1 26 7 3
3 6 -10 6 -22 1 -22 0 -8 -21z"/>
<path d="M10735 8505 c-14 -13 -25 -30 -25 -37 1 -7 7 -2 15 12 7 14 26 30 42
37 19 8 22 12 10 13 -10 0 -29 -11 -42 -25z"/>
<path d="M10828 8523 c9 -3 7 -12 -8 -30 -27 -34 -27 -96 0 -123 24 -24 43
-25 60 -5 11 13 10 15 -1 10 -43 -16 -77 77 -44 121 19 25 19 34 -2 33 -11 0
-13 -3 -5 -6z"/>
<path d="M11486 8515 c-11 -8 -15 -15 -9 -15 6 0 16 7 23 15 16 19 11 19 -14
0z"/>
<path d="M769 8503 c-13 -16 -12 -17 4 -4 16 13 21 21 13 21 -2 0 -10 -8 -17
-17z"/>
<path d="M1165 8460 c3 -36 1 -90 -4 -120 -5 -30 -5 -62 -1 -70 6 -10 8 -8 9
10 1 14 4 54 7 90 2 36 0 85 -5 110 -10 43 -10 42 -6 -20z"/>
<path d="M2099 8496 c12 -16 21 -37 21 -47 0 -10 12 -24 27 -31 15 -7 34 -26
41 -41 17 -35 24 -31 14 9 -5 19 -19 34 -40 44 -17 8 -32 20 -32 27 0 7 -12
25 -26 40 l-26 28 21 -29z"/>
<path d="M11551 8504 c0 -11 3 -14 6 -6 3 7 2 16 -1 19 -3 4 -6 -2 -5 -13z"/>
<path d="M1520 8504 c0 -6 7 -19 16 -30 14 -18 14 -18 3 6 -14 31 -19 36 -19
24z"/>
<path d="M12057 8499 c7 -7 15 -10 18 -7 3 3 -2 9 -12 12 -14 6 -15 5 -6 -5z"/>
<path d="M1282 8480 c0 -14 2 -19 5 -12 2 6 2 18 0 25 -3 6 -5 1 -5 -13z"/>
<path d="M11659 8445 c-7 -62 2 -181 11 -155 3 8 3 60 0 115 -5 97 -5 98 -11
40z"/>
<path d="M728 8483 c7 -3 16 -2 19 1 4 3 -2 6 -13 5 -11 0 -14 -3 -6 -6z"/>
<path d="M12098 8483 c7 -3 16 -2 19 1 4 3 -2 6 -13 5 -11 0 -14 -3 -6 -6z"/>
<path d="M11541 8454 c0 -11 3 -14 6 -6 3 7 2 16 -1 19 -3 4 -6 -2 -5 -13z"/>
<path d="M10893 8425 c0 -22 2 -30 4 -17 2 12 2 30 0 40 -3 9 -5 -1 -4 -23z"/>
<path d="M11270 8440 c-6 -11 -8 -20 -6 -20 3 0 10 9 16 20 6 11 8 20 6 20 -3
0 -10 -9 -16 -20z"/>
<path d="M1560 8430 c6 -11 13 -20 16 -20 2 0 0 9 -6 20 -6 11 -13 20 -16 20
-2 0 0 -9 6 -20z"/>
<path d="M10690 8443 c-40 -15 -60 -46 -59 -92 l2 -46 6 42 c8 48 26 73 52 73
11 0 19 7 19 15 0 8 -1 15 -2 14 -2 0 -10 -3 -18 -6z"/>
<path d="M1292 8420 c0 -14 2 -19 5 -12 2 6 2 18 0 25 -3 6 -5 1 -5 -13z"/>
<path d="M11532 8385 c0 -16 2 -22 5 -12 2 9 2 23 0 30 -3 6 -5 -1 -5 -18z"/>
<path d="M1597 8375 c45 -64 183 -175 217 -175 6 0 -18 17 -53 38 -35 20 -91
66 -124 102 -33 36 -51 52 -40 35z"/>
<path d="M616 8363 c-6 -14 -5 -15 5 -6 7 7 10 15 7 18 -3 3 -9 -2 -12 -12z"/>
<path d="M11178 8321 c-32 -33 -85 -73 -122 -92 -36 -18 -63 -35 -61 -37 5 -6
87 39 135 73 36 27 120 116 108 115 -2 0 -29 -27 -60 -59z"/>
<path d="M1302 8340 c0 -19 2 -27 5 -17 2 9 2 25 0 35 -3 9 -5 1 -5 -18z"/>
<path d="M12222 8330 c0 -14 2 -19 5 -12 2 6 2 18 0 25 -3 6 -5 1 -5 -13z"/>
<path d="M1204 8320 c25 -135 17 -168 -60 -251 -30 -33 -54 -67 -54 -76 -1
-16 -2 -16 -15 1 -8 11 -16 31 -16 45 -1 21 -2 22 -6 6 -5 -18 24 -85 36 -85
4 0 7 10 8 22 1 12 27 47 58 78 30 30 56 62 57 70 0 8 4 -5 9 -30 5 -30 6 -4
4 75 -1 66 -8 131 -14 145 l-11 25 4 -25z"/>
<path d="M11523 8300 c0 -25 2 -35 4 -22 2 12 2 32 0 45 -2 12 -4 2 -4 -23z"/>
<path d="M11624 8328 c-11 -17 -18 -152 -10 -184 4 -15 34 -54 67 -86 36 -36
59 -67 59 -81 l1 -22 19 24 c11 13 20 31 20 40 -1 9 -7 3 -13 -13 l-13 -30
-13 32 c-8 18 -31 48 -52 66 -21 18 -45 45 -54 62 -17 32 -20 122 -6 172 10
33 8 41 -5 20z"/>
<path d="M2191 8314 c0 -11 3 -14 6 -6 3 7 2 16 -1 19 -3 4 -6 -2 -5 -13z"/>
<path d="M610 8301 c0 -6 9 -16 20 -24 17 -12 18 -18 9 -43 -8 -22 -7 -44 4
-89 l15 -60 -2 78 c-1 72 1 80 23 99 l25 19 -26 -6 c-19 -5 -32 -1 -47 14 -12
12 -21 17 -21 12z"/>
<path d="M10640 8291 c0 -6 4 -13 10 -16 6 -3 7 1 4 9 -7 18 -14 21 -14 7z"/>
<path d="M12199 8284 c-8 -10 -22 -14 -40 -10 l-27 5 25 -25 c23 -23 24 -30
20 -94 -3 -39 -2 -70 3 -70 11 0 23 124 15 150 -4 14 -1 28 11 41 9 10 15 19
12 19 -3 0 -11 -7 -19 -16z"/>
<path d="M1314 8115 c0 -88 2 -123 3 -77 2 46 2 118 0 160 -1 42 -3 5 -3 -83z"/>
<path d="M2146 8241 c-16 -16 -41 -35 -57 -42 -17 -6 -28 -14 -25 -16 8 -8 60
25 90 56 17 17 27 31 25 31 -3 0 -18 -13 -33 -29z"/>
<path d="M10699 8223 c19 -18 39 -33 45 -33 6 0 -1 7 -14 17 -14 9 -34 23 -46
32 -11 9 -5 1 15 -16z"/>
<path d="M11670 8255 c0 -5 5 -17 10 -25 5 -8 10 -10 10 -5 0 6 -5 17 -10 25
-5 8 -10 11 -10 5z"/>
<path d="M11696 8247 c3 -10 9 -15 12 -12 3 3 0 11 -7 18 -10 9 -11 8 -5 -6z"/>
<path d="M1116 8235 c-11 -8 -15 -15 -9 -15 6 0 16 7 23 15 16 19 11 19 -14 0z"/>
<path d="M1146 8235 c-9 -26 -7 -32 5 -12 6 10 9 21 6 23 -2 3 -7 -2 -11 -11z"/>
<path d="M1052 8203 c8 -30 6 -43 -16 -87 l-25 -51 25 30 c13 17 27 41 30 55
3 14 9 35 14 46 7 17 4 24 -15 32 -23 10 -23 10 -13 -25z"/>
<path d="M11760 8224 c-14 -7 -19 -14 -12 -14 6 0 12 -11 12 -25 0 -33 21 -75
51 -100 23 -19 23 -18 -1 8 -21 24 -25 39 -25 88 0 32 0 59 0 58 0 -1 -11 -7
-25 -15z"/>
<path d="M1096 8141 c-20 -32 -36 -63 -36 -67 0 -8 47 64 69 105 23 43 3 19
-33 -38z"/>
<path d="M10958 8183 c7 -3 16 -2 19 1 4 3 -2 6 -13 5 -11 0 -14 -3 -6 -6z"/>
<path d="M11513 8110 c0 -47 2 -66 4 -42 2 23 2 61 0 85 -2 23 -4 4 -4 -43z"/>
<path d="M11710 8170 c6 -11 13 -20 16 -20 2 0 0 9 -6 20 -6 11 -13 20 -16 20
-2 0 0 -9 6 -20z"/>
<path d="M1908 8173 c6 -2 18 -2 25 0 6 3 1 5 -13 5 -14 0 -19 -2 -12 -5z"/>
<path d="M2008 8173 c6 -2 18 -2 25 0 6 3 1 5 -13 5 -14 0 -19 -2 -12 -5z"/>
<path d="M10798 8173 c6 -2 18 -2 25 0 6 3 1 5 -13 5 -14 0 -19 -2 -12 -5z"/>
<path d="M10903 8173 c9 -2 23 -2 30 0 6 3 -1 5 -18 5 -16 0 -22 -2 -12 -5z"/>
<path d="M710 8104 c-14 -7 -20 -14 -15 -14 7 0 9 -28 7 -74 -3 -51 1 -90 12
-124 26 -77 120 -173 168 -172 7 1 -3 8 -22 16 -45 20 -86 59 -113 109 -18 33
-22 56 -22 135 0 57 5 104 13 118 14 25 8 26 -28 6z"/>
<path d="M950 8111 c0 -13 39 -35 48 -27 3 3 0 6 -6 6 -6 0 -18 7 -26 16 -9 8
-16 11 -16 5z"/>
<path d="M11861 8100 c-13 -11 -18 -20 -13 -20 6 0 14 5 18 12 5 8 10 6 15 -8
6 -16 8 -15 8 9 1 32 2 32 -28 7z"/>
<path d="M12095 8105 c4 -11 10 -62 13 -112 4 -86 2 -97 -23 -149 -17 -35 -42
-66 -68 -85 -22 -16 -36 -29 -31 -29 23 0 83 63 112 117 35 67 48 140 34 200
-8 36 -7 43 7 46 12 4 11 5 -4 6 -12 0 -27 7 -34 14 -12 10 -13 8 -6 -8z"/>
<path d="M11758 8095 c5 -11 12 -27 15 -35 5 -13 6 -13 6 1 1 8 -6 24 -15 35
-15 19 -15 19 -6 -1z"/>
<path d="M11612 8035 c0 -16 2 -22 5 -12 2 9 2 23 0 30 -3 6 -5 -1 -5 -18z"/>
<path d="M904 8012 c-42 -52 -53 -74 -15 -32 29 32 55 70 49 70 -2 0 -17 -17
-34 -38z"/>
<path d="M11919 8015 c31 -46 64 -84 52 -60 -6 11 -25 36 -42 55 -26 30 -28
30 -10 5z"/>
<path d="M1212 8000 c0 -14 2 -19 5 -12 2 6 2 18 0 25 -3 6 -5 1 -5 -13z"/>
<path d="M11622 7970 c0 -14 2 -19 5 -12 2 6 2 18 0 25 -3 6 -5 1 -5 -13z"/>
<path d="M11523 7935 c0 -22 2 -30 4 -17 2 12 2 30 0 40 -3 9 -5 -1 -4 -23z"/>
<path d="M1201 7944 c0 -11 3 -14 6 -6 3 7 2 16 -1 19 -3 4 -6 -2 -5 -13z"/>
<path d="M960 7933 c-8 -4 -32 -19 -54 -34 -21 -16 -43 -26 -49 -22 -6 3 -7 1
-3 -5 12 -20 42 -13 81 18 54 43 114 37 136 -13 8 -19 9 -19 6 -2 -2 22 -61
65 -86 64 -9 0 -23 -3 -31 -6z"/>
<path d="M11631 7924 c0 -11 3 -14 6 -6 3 7 2 16 -1 19 -3 4 -6 -2 -5 -13z"/>
<path d="M11792 7919 c-34 -22 -47 -51 -39 -90 3 -16 5 -12 6 13 2 77 79 103
139 48 18 -16 41 -30 51 -30 26 0 43 24 38 52 -4 21 -4 20 -6 -4 -2 -38 -15
-42 -48 -15 -62 53 -91 58 -141 26z"/>
<path d="M841 7904 c0 -11 3 -14 6 -6 3 7 2 16 -1 19 -3 4 -6 -2 -5 -13z"/>
<path d="M1175 7862 c-59 -173 -227 -304 -371 -289 -48 5 -54 3 -68 -18 -23
-35 -20 -42 5 -11 20 25 21 25 51 10 39 -20 117 -15 171 11 55 26 122 91 161
159 34 56 82 183 74 191 -2 3 -13 -21 -23 -53z"/>
<path d="M1302 7895 c0 -16 2 -22 5 -12 2 9 2 23 0 30 -3 6 -5 -1 -5 -18z"/>
<path d="M11645 7875 c3 -16 23 -66 45 -110 68 -140 176 -225 285 -225 30 0
60 6 73 16 19 13 26 14 40 3 15 -11 15 -11 4 1 -9 11 -30 14 -75 12 -55 -3
-71 1 -134 33 -94 47 -169 127 -212 227 -18 40 -30 60 -26 43z"/>
<path d="M11532 7850 c0 -14 2 -19 5 -12 2 6 2 18 0 25 -3 6 -5 1 -5 -13z"/>
<path d="M1292 7830 c0 -14 2 -19 5 -12 2 6 2 18 0 25 -3 6 -5 1 -5 -13z"/>
<path d="M11541 7794 c0 -11 3 -14 6 -6 3 7 2 16 -1 19 -3 4 -6 -2 -5 -13z"/>
<path d="M1282 7780 c0 -14 2 -19 5 -12 2 6 2 18 0 25 -3 6 -5 1 -5 -13z"/>
<path d="M1053 7775 c-5 -8 -26 -24 -48 -35 -22 -11 -33 -20 -26 -20 20 0 78
38 85 55 7 19 -1 19 -11 0z"/>
<path d="M11792 7755 c15 -16 29 -27 31 -24 3 2 -10 15 -27 28 l-31 24 27 -28z"/>
<path d="M11551 7754 c0 -11 3 -14 6 -6 3 7 2 16 -1 19 -3 4 -6 -2 -5 -13z"/>
<path d="M913 7713 c9 -2 25 -2 35 0 9 3 1 5 -18 5 -19 0 -27 -2 -17 -5z"/>
<path d="M1261 7704 c0 -11 3 -14 6 -6 3 7 2 16 -1 19 -3 4 -6 -2 -5 -13z"/>
<path d="M11893 7713 c9 -2 23 -2 30 0 6 3 -1 5 -18 5 -16 0 -22 -2 -12 -5z"/>
<path d="M11571 7690 c0 -8 6 -28 14 -45 17 -39 18 -21 0 25 -7 19 -14 28 -14
20z"/>
<path d="M1231 7619 c-6 -18 -9 -34 -7 -36 2 -2 9 10 15 28 6 18 9 34 7 36 -2
2 -9 -10 -15 -28z"/>
<path d="M11611 7575 c0 -5 6 -21 14 -35 8 -14 14 -20 14 -15 0 6 -6 21 -14
35 -8 14 -14 21 -14 15z"/>
<path d="M1202 7545 c-17 -37 -14 -45 4 -12 9 16 14 31 11 33 -2 2 -9 -7 -15
-21z"/>
<path d="M12109 7495 c-4 -26 -2 -30 18 -31 23 -2 123 -71 123 -86 0 -4 -16
-22 -35 -41 -23 -23 -33 -40 -29 -51 8 -22 23 -20 17 2 -3 11 7 31 26 51 17
18 31 37 31 42 0 14 -94 99 -117 105 -12 3 -24 13 -26 22 -2 10 -5 4 -8 -13z"/>
<path d="M685 7485 c-17 -7 -45 -29 -63 -49 -18 -20 -37 -36 -42 -36 -18 0
-10 -19 22 -55 22 -26 32 -47 32 -72 1 -21 6 -37 14 -39 7 -1 8 0 2 3 -12 6
-13 50 -1 57 5 3 -9 24 -31 46 l-41 40 43 33 c60 45 83 57 98 52 13 -5 15 4 4
22 -5 8 -14 8 -37 -2z"/>
<path d="M11660 7461 c0 -6 4 -13 10 -16 6 -3 7 1 4 9 -7 18 -14 21 -14 7z"/>
<path d="M1134 7408 c-53 -104 -153 -222 -264 -311 -27 -22 -25 -21 13 4 61
42 152 138 204 214 43 65 77 125 69 125 -3 0 -13 -15 -22 -32z"/>
<path d="M11700 7390 c6 -11 13 -20 16 -20 2 0 0 9 -6 20 -6 11 -13 20 -16 20
-2 0 0 -9 6 -20z"/>
<path d="M11736 7335 c57 -100 210 -249 297 -290 18 -9 23 -10 13 -3 -134 89
-207 160 -309 298 -18 25 -18 25 -1 -5z"/>
<path d="M890 7278 c-19 -12 -38 -28 -42 -34 -10 -15 -136 -68 -200 -84 -26
-7 -49 -19 -52 -27 -18 -45 210 54 294 127 51 45 51 50 0 18z"/>
<path d="M11925 7275 c89 -73 205 -136 284 -151 31 -6 31 -6 31 36 0 34 6 48
34 76 19 19 30 34 26 34 -17 0 -70 -72 -70 -95 0 -14 -4 -25 -8 -25 -40 0
-224 78 -216 91 3 5 -3 6 -13 2 -10 -3 -15 -2 -10 2 4 5 -11 19 -34 32 -53 30
-62 29 -24 -2z"/>
<path d="M527 7261 c23 -11 48 -32 57 -48 8 -15 15 -23 16 -18 1 30 -66 85
-102 85 -7 0 6 -9 29 -19z"/>
<path d="M12415 7266 c31 -14 64 -46 83 -81 6 -11 11 -15 12 -10 0 32 -76 105
-110 105 -8 -1 -1 -7 15 -14z"/>
<path d="M363 7238 c-11 -13 -24 -30 -28 -38 -8 -16 -6 -14 34 33 14 15 22 27
19 27 -2 0 -14 -10 -25 -22z"/>
<path d="M12185 7240 c-3 -5 -1 -10 4 -10 6 0 11 5 11 10 0 6 -2 10 -4 10 -3
0 -8 -4 -11 -10z"/>
<path d="M12028 7233 c7 -3 16 -2 19 1 4 3 -2 6 -13 5 -11 0 -14 -3 -6 -6z"/>
<path d="M693 7223 c15 -2 39 -2 55 0 15 2 2 4 -28 4 -30 0 -43 -2 -27 -4z"/>
<path d="M12083 7223 c15 -2 39 -2 55 0 15 2 2 4 -28 4 -30 0 -43 -2 -27 -4z"/>
<path d="M12513 7115 c0 -27 2 -38 4 -22 2 15 2 37 0 50 -2 12 -4 0 -4 -28z"/>
<path d="M312 7115 c0 -16 2 -22 5 -12 2 9 2 23 0 30 -3 6 -5 -1 -5 -18z"/>
<path d="M321 7067 c-1 -9 17 -37 39 -61 l40 -43 2 -628 c2 -488 6 -629 15
-632 10 -4 13 131 15 627 l3 632 -25 13 c-32 17 -66 53 -79 85 -7 18 -10 20
-10 7z"/>
<path d="M755 7029 c-77 -43 -82 -53 -7 -15 43 23 94 56 82 55 -3 0 -36 -18
-75 -40z"/>
<path d="M12477 7016 c-9 -13 -30 -30 -47 -37 l-30 -14 2 -629 c2 -493 6 -630
16 -634 9 -3 12 128 12 631 l0 635 25 16 c13 9 29 25 35 36 15 28 6 25 -13 -4z"/>
<path d="M12140 6990 c8 -5 20 -10 25 -10 6 0 3 5 -5 10 -8 5 -19 10 -25 10
-5 0 -3 -5 5 -10z"/>
<path d="M12218 6963 c7 -3 16 -2 19 1 4 3 -2 6 -13 5 -11 0 -14 -3 -6 -6z"/>
<path d="M462 6953 c17 -4 18 -45 20 -625 2 -486 6 -622 16 -626 9 -3 12 126
12 621 l0 625 -22 6 c-13 3 -27 5 -33 5 -5 -1 -2 -3 7 -6z"/>
<path d="M543 6953 c9 -2 23 -2 30 0 6 3 -1 5 -18 5 -16 0 -22 -2 -12 -5z"/>
<path d="M12263 6953 c9 -2 23 -2 30 0 6 3 -1 5 -18 5 -16 0 -22 -2 -12 -5z"/>
<path d="M12337 6953 c-16 -4 -17 -40 -15 -625 2 -486 6 -622 16 -626 9 -3 12
126 12 621 l0 626 23 4 c18 3 18 4 2 4 -11 1 -28 -1 -38 -4z"/>
<path d="M767 4140 c-37 -29 -50 -80 -45 -169 5 -74 26 -131 74 -198 14 -20
14 -22 -5 -28 -35 -11 -28 -72 14 -135 37 -55 42 -65 24 -55 -18 12 -67 -16
-79 -45 -19 -46 -4 -83 56 -140 l56 -53 -44 -21 c-41 -20 -43 -23 -40 -61 6
-65 35 -116 116 -205 85 -94 106 -131 106 -185 0 -40 -12 -68 -43 -102 -28
-32 -34 -29 -29 13 7 59 -16 141 -50 180 -37 42 -93 71 -204 108 -59 19 -91
37 -118 63 -41 41 -41 41 -21 -18 12 -34 15 -84 13 -238 l-3 -196 34 -108 c40
-130 40 -138 -24 -344 -48 -153 -103 -366 -127 -488 -8 -43 -13 -137 -12 -245
0 -208 15 -278 94 -437 88 -178 223 -289 352 -287 l58 1 0 -37 c0 -57 47 -138
121 -212 54 -53 90 -78 171 -117 294 -144 590 -133 1143 41 198 63 256 67 390
25 87 -27 97 -28 285 -26 158 1 203 -1 238 -14 l43 -17 -36 42 c-24 29 -44 69
-61 123 -33 109 -71 173 -121 209 -36 25 -54 30 -125 34 l-82 5 38 33 c79 68
139 55 264 -58 93 -84 149 -117 212 -125 49 -7 67 7 76 55 l7 35 52 -56 c63
-68 94 -82 142 -66 37 12 53 34 53 74 l0 27 34 -30 c62 -54 148 -68 154 -26 3
21 5 21 53 -12 148 -99 362 -78 362 36 0 58 -29 73 -140 76 -141 3 -194 27
-353 159 -78 66 -176 119 -256 140 -71 18 -207 19 -291 1 l-63 -13 0 34 c0 18
-11 60 -25 93 -14 33 -25 69 -25 80 0 25 -22 26 -75 1 -64 -29 -101 -79 -131
-178 -15 -49 -35 -106 -46 -128 -20 -38 -124 -155 -138 -155 -4 0 3 21 16 47
43 92 58 169 58 308 0 116 -3 138 -27 208 -80 228 -255 357 -487 357 -223 0
-412 -138 -495 -362 -66 -179 -95 -218 -164 -218 -29 0 -41 15 -41 51 0 28
-16 23 -44 -14 -59 -78 -26 -169 75 -204 42 -15 49 -21 49 -45 0 -37 54 -98
87 -98 32 0 77 24 101 55 l19 24 6 -46 c8 -75 54 -93 119 -49 35 23 36 23 52
5 10 -13 29 -19 55 -19 67 0 74 -6 51 -50 -31 -61 -156 -147 -291 -200 -48
-19 -51 -19 -44 -3 4 10 14 37 22 61 8 23 24 49 35 56 26 19 16 34 -39 58 -65
29 -140 9 -229 -58 -40 -31 -44 -30 -44 5 0 43 -9 60 -41 76 -37 20 -81 19
-127 -2 -35 -16 -36 -17 -12 -21 50 -8 55 -65 9 -111 -72 -72 -243 -81 -325
-16 l-27 22 31 18 c66 40 77 126 23 184 -32 34 -94 54 -140 45 -30 -6 -31 -5
-31 27 0 71 -62 129 -136 129 -29 0 -44 -8 -76 -40 l-40 -40 -19 23 c-31 37
-42 85 -37 167 5 92 38 159 88 180 40 17 80 1 81 -32 0 -19 4 -15 20 17 40 81
5 159 -70 160 l-40 0 17 25 c67 102 82 135 82 182 0 50 -17 95 -44 117 -12 10
-17 9 -25 -8 -8 -15 -103 -61 -126 -61 -8 0 25 82 60 148 41 78 97 151 141
181 45 31 54 27 54 -23 0 -29 7 -52 21 -70 20 -25 20 -28 5 -45 -9 -10 -20
-35 -23 -55 -8 -51 16 -76 74 -76 l45 0 -31 -25 c-16 -14 -37 -46 -47 -71
l-17 -45 28 -29 c27 -28 89 -55 105 -45 3 2 11 -15 17 -38 16 -58 47 -94 93
-108 47 -14 79 -7 119 27 35 29 41 48 12 39 -10 -3 -28 2 -41 13 -18 15 -21
24 -16 49 11 49 54 80 179 127 133 51 208 97 270 166 225 250 162 640 -128
792 -104 54 -180 71 -310 71 -118 -1 -228 -24 -304 -63 -23 -11 -41 -16 -41
-12 0 18 108 110 156 135 28 14 77 33 109 42 117 34 172 76 200 154 20 57 19
61 -10 61 -14 0 -53 11 -87 25 -34 14 -75 25 -91 25 -24 0 -28 3 -22 18 4 9
12 59 18 109 22 186 -24 324 -168 502 -41 52 -84 108 -94 125 -32 52 -51 135
-51 223 0 70 -3 86 -20 103 -26 26 -70 26 -103 0z m87 -16 c12 -12 16 -37 16
-103 0 -140 29 -202 176 -381 69 -84 122 -200 135 -294 12 -87 -1 -222 -26
-283 -16 -38 -7 -48 29 -32 21 10 38 7 105 -17 44 -16 83 -35 86 -42 3 -7 -2
-26 -10 -42 -25 -48 -81 -86 -163 -110 -145 -41 -232 -102 -306 -211 -42 -62
-38 -80 10 -44 50 38 133 74 211 90 91 20 249 19 327 -1 148 -38 273 -135 331
-256 69 -143 69 -294 0 -434 -67 -138 -150 -206 -340 -279 -138 -54 -158 -66
-179 -110 -23 -48 -20 -80 9 -103 31 -25 31 -27 -3 -41 -64 -27 -137 27 -148
107 l-6 47 -37 -3 c-43 -4 -91 28 -91 61 0 41 39 88 90 110 39 16 47 24 38 34
-8 10 -27 12 -74 7 -77 -8 -99 4 -90 49 3 16 15 40 26 54 l20 26 -20 22 c-15
16 -22 38 -24 73 l-2 49 77 6 c52 3 93 13 123 27 24 13 52 20 61 16 9 -3 27
-30 40 -59 35 -80 94 -123 133 -98 20 12 11 55 -13 59 -11 2 -37 8 -57 13 -35
9 -38 13 -38 44 0 24 7 39 26 54 l27 21 -27 21 c-29 23 -32 43 -15 116 l11 49
72 -4 c39 -2 76 -9 83 -14 8 -6 15 -3 23 11 11 22 45 27 70 11 12 -8 12 -11
-3 -28 -9 -10 -17 -30 -17 -43 0 -77 110 -61 135 20 22 74 -66 192 -185 248
-147 70 -292 70 -437 2 -64 -31 -158 -108 -195 -163 -18 -27 -16 -26 23 11 49
47 92 67 161 77 28 4 60 17 77 31 15 14 40 29 54 34 25 10 71 4 65 -8 -2 -3
-12 -24 -22 -46 -10 -22 -23 -51 -30 -65 -6 -14 -25 -32 -41 -40 -29 -15 -28
-15 53 -18 89 -3 100 -10 88 -56 -12 -48 -30 -56 -134 -56 -199 0 -297 -32
-392 -129 -63 -65 -118 -163 -150 -270 -27 -93 -50 -232 -50 -308 0 -63 20
-133 39 -133 21 0 41 33 41 68 0 50 28 192 40 207 6 7 37 22 70 34 33 12 62
26 65 31 17 28 45 -20 45 -76 0 -40 -12 -66 -80 -171 -48 -72 -60 -103 -42
-103 5 0 17 9 27 20 24 26 47 32 79 20 30 -11 49 -51 40 -85 -5 -20 -9 -23
-24 -15 -48 26 -117 -6 -149 -67 -10 -21 -24 -65 -30 -97 -18 -96 3 -176 60
-237 l32 -34 13 31 c16 40 59 74 91 74 37 0 81 -27 98 -60 24 -47 19 -90 -18
-133 -29 -35 -37 -39 -80 -39 -117 0 -245 108 -327 275 -65 133 -90 232 -97
382 -9 191 34 423 142 770 61 196 65 237 29 340 -26 76 -27 92 -31 303 -3 125
-1 222 4 222 5 0 13 -4 19 -9 5 -5 41 -19 79 -31 97 -32 158 -64 188 -99 35
-42 52 -121 39 -188 -11 -65 -2 -67 55 -18 57 48 79 107 63 166 -15 53 -35 84
-118 172 -35 37 -72 86 -82 110 -24 52 -26 103 -4 111 26 10 69 7 82 -6 9 -9
12 -9 12 1 0 24 -38 75 -88 118 -27 23 -53 54 -56 69 -10 37 16 74 53 74 33 0
46 -12 59 -60 l10 -35 1 46 c1 34 -5 55 -24 80 -52 73 -76 119 -73 141 2 19 8
22 36 20 17 -2 32 -1 32 3 0 4 -15 25 -34 48 -70 87 -99 188 -82 282 13 67 74
106 110 69z m1619 -2439 c168 -44 283 -155 341 -327 61 -181 33 -422 -65 -565
-34 -49 -33 -61 3 -43 112 59 193 163 238 311 32 102 61 149 111 174 36 19 42
19 31 -2 -5 -10 -13 -49 -17 -88 -7 -66 -9 -71 -54 -113 l-46 -44 50 34 c53
37 62 56 64 130 1 26 6 59 12 75 10 27 11 26 40 -45 30 -76 37 -126 18 -138
-23 -14 9 -27 38 -16 42 17 140 32 203 32 142 0 255 -46 405 -167 55 -43 116
-89 136 -101 52 -32 144 -52 226 -51 85 1 105 -10 101 -54 -5 -51 -46 -72
-136 -72 -87 0 -160 27 -224 84 -47 41 -58 40 -51 -6 l6 -36 -34 7 c-19 3 -52
20 -74 36 -71 53 -119 74 -151 65 l-29 -8 35 -8 c55 -12 76 -55 43 -91 -33
-37 -71 -24 -149 52 -78 76 -110 90 -92 43 7 -20 7 -37 -1 -57 -11 -27 -14
-28 -52 -22 -60 10 -91 29 -185 113 -99 87 -159 118 -217 110 -44 -6 -103 -48
-129 -94 l-17 -29 92 1 c79 0 97 -3 128 -22 48 -30 83 -85 115 -180 14 -43 32
-89 39 -103 l13 -25 -217 0 c-209 0 -219 1 -296 28 -100 33 -159 34 -266 2
-486 -145 -595 -168 -804 -169 -185 0 -281 21 -433 95 -120 58 -212 140 -255
228 -58 118 -18 211 89 211 69 0 113 -41 114 -107 0 -34 -5 -46 -31 -67 -17
-14 -37 -26 -45 -26 -47 0 28 -79 95 -99 55 -16 150 -14 205 5 26 9 64 32 83
52 34 34 35 38 30 89 -6 53 -5 53 22 53 16 0 40 -9 55 -21 34 -27 34 -68 1
-99 -14 -13 -25 -27 -25 -32 0 -18 32 -6 97 38 128 86 174 102 229 79 20 -8
34 -18 32 -22 -2 -5 -12 -26 -21 -48 -51 -119 -48 -118 -199 -135 -104 -12
-118 -17 -118 -41 0 -45 93 -57 249 -35 218 32 378 101 471 203 85 93 110 173
110 355 0 102 1 110 25 133 13 14 35 25 48 25 40 0 50 -22 42 -89 -8 -74 1
-94 23 -49 13 24 30 37 67 51 28 10 57 25 66 33 15 13 17 13 23 -1 12 -32 6
-64 -18 -92 -30 -37 -46 -67 -46 -91 0 -51 -33 -124 -73 -163 -23 -23 -33 -37
-21 -31 34 18 133 130 158 180 60 118 73 264 36 385 -42 137 -145 246 -240
255 -39 3 -51 0 -78 -23 -21 -17 -32 -36 -32 -53 0 -54 64 -83 93 -42 11 16
16 18 24 8 26 -32 18 -78 -13 -78 -12 0 -12 -4 2 -25 11 -17 15 -38 11 -63 -2
-20 -2 -48 2 -62 7 -24 4 -26 -49 -37 -79 -17 -86 -16 -114 14 l-25 27 -21
-27 c-42 -53 -100 -29 -100 40 0 66 -62 88 -68 25 -5 -49 21 -80 94 -112 72
-33 76 -41 44 -112 -13 -29 -20 -69 -21 -119 l-2 -76 -51 5 c-33 3 -59 12 -74
25 -19 18 -26 19 -40 9 -9 -7 -32 -20 -50 -29 -31 -16 -33 -16 -50 1 -13 13
-17 34 -17 88 0 81 -16 99 -34 39 -12 -43 -57 -87 -98 -98 -38 -9 -86 46 -81
93 4 30 2 33 -31 39 -79 15 -121 55 -121 116 0 45 23 70 39 41 16 -31 56 -35
107 -13 39 18 48 28 73 83 16 35 41 96 56 136 65 175 188 291 356 336 71 19
171 20 242 1z"/>
<path d="M832 3684 c15 -16 41 -54 58 -84 17 -30 28 -44 25 -30 -12 44 -53
107 -82 125 l-28 18 27 -29z"/>
<path d="M861 3230 c20 -11 58 -43 84 -72 48 -52 51 -51 12 6 -20 29 -102 86
-121 86 -6 -1 5 -9 25 -20z"/>
<path d="M633 2990 c97 -147 120 -220 121 -379 1 -136 13 -120 15 19 2 135
-42 261 -121 350 -17 19 -24 24 -15 10z"/>
<path d="M1325 2960 c-16 -4 -49 -8 -72 -9 -59 -2 -68 -7 -108 -64 l-36 -52
45 48 c43 48 45 49 122 58 42 4 82 13 88 19 11 11 5 11 -39 0z"/>
<path d="M1337 2265 c54 -77 141 -134 215 -141 l43 -5 -55 19 c-78 26 -97 38
-164 101 -38 35 -52 45 -39 26z"/>
<path d="M1027 2009 c64 -67 77 -73 155 -74 37 0 61 3 54 7 -7 4 -38 6 -69 5
-56 -2 -57 -2 -114 56 -72 71 -91 75 -26 6z"/>
<path d="M801 1677 c-1 -10 -21 -39 -45 -65 -50 -54 -96 -120 -96 -136 1 -6 8
3 17 19 9 17 37 53 63 80 53 57 74 90 66 108 -2 7 -5 4 -5 -6z"/>
<path d="M1154 1669 c-16 -10 -55 -23 -85 -28 l-54 -9 43 -1 c47 -1 100 17
121 42 17 21 14 20 -25 -4z"/>
<path d="M1172 1582 c-5 -16 -8 -41 -5 -56 6 -30 56 -76 81 -75 13 0 12 2 -4
9 -50 20 -77 86 -54 131 6 11 7 19 1 19 -5 0 -13 -13 -19 -28z"/>
<path d="M716 1366 c-18 -19 -36 -45 -39 -58 -6 -23 -5 -23 11 2 54 80 104
100 151 58 l25 -23 -16 25 c-12 19 -25 26 -57 28 -37 3 -46 -1 -75 -32z"/>
<path d="M2295 1432 c10 -80 74 -173 160 -232 11 -7 -1 6 -26 31 -60 57 -96
113 -120 186 -19 56 -19 56 -14 15z"/>
<path d="M1630 1107 c0 -10 11 -29 25 -42 28 -29 89 -34 121 -10 23 17 15 19
-22 5 -37 -15 -90 4 -109 38 -11 20 -14 23 -15 9z"/>
<path d="M2110 1044 l5 -74 64 -62 c35 -35 59 -54 53 -43 -6 11 -33 42 -61 68
-51 49 -51 49 -51 112 0 35 -3 66 -7 68 -5 3 -6 -28 -3 -69z"/>
<path d="M1847 1052 c-27 -29 -47 -89 -46 -134 l1 -43 9 54 c5 30 20 74 33 98
27 47 27 52 3 25z"/>
<path d="M3324 829 c21 -18 52 -53 67 -78 35 -54 39 -44 5 13 -13 23 -37 50
-53 62 -49 36 -59 38 -19 3z"/>
<path d="M3767 767 c24 -12 58 -37 78 -55 19 -19 35 -30 35 -25 0 25 -109 104
-142 103 -7 -1 6 -11 29 -23z"/>
<path d="M1551 701 c29 -39 16 -75 -40 -118 -47 -36 -44 -44 6 -13 34 20 63
66 63 98 0 10 -9 28 -20 40 -29 31 -34 27 -9 -7z"/>
<path d="M1810 663 c-14 -9 -48 -38 -77 -65 -28 -26 -57 -48 -64 -48 -7 0 -9
-3 -6 -6 8 -9 51 20 107 71 25 23 54 47 65 53 11 6 15 12 10 12 -6 0 -22 -8
-35 -17z"/>
<path d="M2731 639 c-97 -12 -91 -14 46 -14 153 0 237 -23 343 -92 64 -42 64
-42 25 -7 -100 89 -259 133 -414 113z"/>
<path d="M11964 4139 c-14 -16 -19 -43 -24 -132 -6 -98 -10 -119 -38 -172 -16
-33 -50 -83 -74 -111 -106 -123 -166 -228 -188 -325 -13 -56 -9 -252 6 -311 6
-25 4 -28 -20 -28 -15 0 -54 -11 -88 -25 -34 -14 -72 -25 -85 -25 -30 0 -30
-28 -2 -87 29 -61 74 -91 191 -129 115 -38 190 -83 237 -143 18 -23 31 -41 29
-41 -2 0 -23 9 -47 21 -123 59 -338 80 -471 46 -226 -59 -369 -212 -398 -425
-33 -236 98 -464 319 -555 35 -14 99 -40 142 -58 60 -24 84 -39 98 -63 28 -46
25 -84 -7 -96 -14 -6 -30 -8 -35 -4 -5 3 -9 0 -9 -6 0 -20 52 -59 88 -66 64
-12 135 43 151 117 4 19 13 33 20 31 19 -4 75 24 99 51 31 33 23 75 -25 128
l-35 39 39 0 c22 0 48 6 58 14 25 18 24 70 -4 106 l-21 30 20 20 c15 15 20 33
20 70 0 33 4 50 13 50 59 0 183 -162 233 -303 8 -22 12 -42 10 -44 -8 -8 -108
36 -121 53 -17 24 -39 13 -58 -29 -31 -65 -16 -132 52 -231 35 -50 37 -58 16
-50 -23 9 -62 -4 -85 -28 -25 -28 -27 -96 -2 -146 17 -36 17 -37 20 -10 10 86
117 45 153 -59 22 -62 17 -171 -9 -220 -25 -48 -44 -63 -51 -42 -2 8 -18 26
-34 42 -34 32 -90 36 -138 11 -32 -16 -68 -81 -69 -123 0 -21 -3 -23 -31 -17
-49 9 -104 -10 -138 -49 -25 -29 -31 -45 -31 -82 0 -41 5 -50 39 -84 38 -36
39 -38 21 -54 -70 -63 -258 -56 -322 12 -49 53 -44 113 10 113 27 1 27 1 -8
20 -84 46 -175 11 -175 -68 l0 -40 -58 40 c-110 74 -184 84 -247 32 l-30 -26
21 -17 c21 -17 63 -110 54 -119 -9 -9 -121 40 -191 83 -80 50 -157 127 -152
153 2 13 16 18 53 20 27 2 57 10 66 18 13 12 20 11 54 -6 47 -24 64 -25 93 -4
17 12 22 25 22 61 l0 45 29 -31 c31 -33 68 -51 106 -51 30 0 75 56 78 99 2 25
7 32 32 37 49 10 86 37 106 76 22 43 24 70 8 101 -23 45 -77 90 -63 53 11 -27
-15 -56 -49 -56 -63 0 -91 37 -148 195 -89 245 -274 385 -509 385 -274 0 -473
-188 -510 -482 -16 -129 13 -308 66 -411 14 -27 14 -28 -4 -18 -32 17 -100 97
-125 148 -14 26 -34 81 -45 122 -28 96 -61 144 -125 176 -66 33 -87 33 -87 0
0 -14 -11 -52 -25 -85 -14 -33 -25 -72 -25 -88 l0 -29 -62 13 c-77 17 -199 18
-270 3 -83 -17 -185 -71 -283 -150 -49 -40 -113 -87 -142 -105 -61 -36 -155
-58 -217 -49 -125 19 -176 -97 -66 -152 82 -42 222 -22 307 43 28 22 37 24 44
13 5 -8 9 -17 9 -21 0 -25 100 4 154 46 l31 23 1 -28 c2 -56 53 -87 110 -69
20 7 53 34 81 67 29 34 49 50 51 42 3 -8 11 -29 19 -46 13 -29 20 -33 52 -33
57 0 129 41 220 123 130 118 203 133 276 57 l29 -30 -65 0 c-124 -1 -198 -62
-245 -204 -34 -104 -49 -134 -87 -174 l-32 -33 45 16 c35 13 93 17 265 19 209
2 224 4 298 29 43 15 97 27 121 27 24 0 116 -22 205 -50 324 -100 508 -139
696 -147 145 -6 274 14 403 63 195 73 346 221 368 359 l6 40 56 1 c169 0 347
204 418 479 23 85 27 122 27 245 1 202 -33 375 -143 731 -59 191 -62 233 -22
351 26 80 27 91 27 298 1 146 5 224 13 243 17 40 17 40 -32 4 -25 -20 -79 -45
-127 -60 -167 -52 -220 -108 -229 -242 l-5 -80 -32 33 c-67 69 -54 148 41 250
90 96 123 146 137 208 11 48 10 56 -5 73 -10 11 -32 23 -49 27 l-32 7 52 46
c28 25 56 56 62 68 29 58 -1 125 -57 127 -18 0 -32 2 -32 4 0 2 14 20 30 41
52 65 65 137 25 147 l-24 6 24 32 c49 64 69 125 70 211 0 66 -4 86 -23 117
-12 20 -29 39 -38 42 -31 12 -71 6 -90 -15z m95 -23 c67 -71 40 -241 -56 -346
-27 -31 -32 -41 -20 -46 8 -3 21 -5 28 -3 33 4 37 -1 29 -36 -4 -20 -27 -60
-50 -90 -32 -42 -44 -67 -48 -103 -5 -51 6 -51 23 1 8 27 16 33 45 35 40 4 60
-16 60 -59 0 -21 -17 -45 -70 -97 -83 -82 -89 -102 -27 -95 62 7 73 -10 53
-80 -12 -42 -32 -73 -86 -133 -102 -115 -122 -147 -128 -203 -6 -62 18 -114
71 -152 22 -16 43 -29 46 -29 3 0 5 36 3 80 -7 143 37 196 212 256 50 17 98
34 106 38 13 5 15 -21 15 -201 -1 -200 -2 -211 -29 -293 -40 -124 -37 -172 23
-367 153 -494 179 -744 105 -1001 -50 -173 -155 -327 -264 -386 -105 -57 -169
-53 -215 14 -22 32 -26 45 -20 77 7 43 19 61 55 86 53 36 130 6 146 -57 3 -14
9 -26 13 -26 13 0 58 54 76 90 43 84 25 236 -36 305 -34 38 -90 55 -120 36
-27 -16 -29 -15 -29 27 0 26 7 45 20 57 24 21 72 24 94 5 23 -19 19 -32 -6
-24 -36 12 -60 7 -82 -18 l-21 -22 21 17 c36 30 77 22 118 -23 20 -22 36 -45
36 -52 0 -6 3 -9 6 -6 7 8 -13 47 -39 76 -18 19 -18 22 -4 22 16 0 16 3 3 32
-7 18 -34 63 -59 100 -54 79 -71 128 -63 173 7 36 30 63 40 46 4 -6 33 -20 66
-32 88 -32 94 -44 110 -202 5 -53 13 -84 24 -95 16 -16 19 -15 38 8 19 23 20
34 15 150 -9 222 -75 413 -184 530 -96 105 -195 139 -396 140 -101 0 -121 7
-136 51 -17 49 -2 59 88 60 63 0 73 2 57 12 -37 23 -55 46 -65 83 -5 20 -18
45 -27 55 -22 24 -15 31 30 31 24 0 46 -9 66 -26 17 -14 50 -30 73 -36 123
-31 132 -35 175 -77 25 -25 38 -34 31 -21 -22 40 -117 124 -177 156 -148 79
-302 82 -457 8 -76 -36 -150 -102 -171 -153 -34 -79 -3 -163 58 -163 59 0 88
53 48 87 -14 13 -17 20 -8 30 16 19 56 16 70 -6 7 -12 16 -17 23 -12 5 5 44
11 87 13 l76 5 8 -56 c11 -74 8 -89 -19 -111 l-22 -18 28 -29 c29 -31 35 -64
14 -81 -7 -6 -35 -15 -62 -19 -44 -7 -50 -12 -50 -32 0 -72 93 -40 136 47 14
29 33 60 42 70 16 15 20 14 64 -7 32 -16 74 -25 126 -29 l77 -5 0 -49 c0 -36
-5 -53 -20 -65 -11 -10 -20 -24 -20 -31 0 -8 9 -25 20 -39 11 -14 20 -38 20
-54 0 -35 -23 -43 -99 -34 -45 5 -60 3 -70 -8 -10 -13 -7 -16 19 -22 41 -9 89
-51 107 -94 15 -35 15 -36 -17 -64 -26 -24 -40 -28 -71 -25 -39 3 -39 3 -39
-32 0 -47 -33 -98 -75 -116 -57 -24 -119 2 -76 32 45 32 15 136 -49 169 -17 9
-72 32 -122 51 -51 19 -113 47 -140 61 -73 40 -162 139 -205 228 -31 66 -37
89 -41 169 -8 161 31 270 132 372 114 113 247 159 441 152 142 -6 246 -35 324
-92 28 -19 53 -31 56 -26 3 5 -12 36 -34 68 -69 103 -142 153 -281 197 -46 14
-99 35 -117 46 -30 19 -80 85 -71 94 2 3 20 0 39 -5 18 -6 54 -10 78 -10 40 0
48 -4 90 -50 48 -52 75 -69 38 -24 -63 77 -69 80 -144 87 -39 4 -78 10 -87 13
-19 7 -21 24 -3 24 8 0 42 12 78 26 54 22 69 24 98 15 19 -6 37 -9 39 -7 2 2
-4 26 -14 53 -22 64 -30 238 -14 312 19 84 71 179 159 288 121 151 143 206
145 349 1 88 13 114 50 114 13 0 33 -11 45 -24z m-1454 -2431 c170 -45 296
-170 365 -364 53 -147 88 -194 157 -207 26 -5 37 -1 59 21 33 33 49 22 49 -36
0 -34 -6 -46 -36 -74 -24 -22 -50 -34 -80 -39 -44 -7 -44 -7 -41 -44 5 -50
-35 -97 -75 -87 -41 10 -71 37 -94 85 -28 57 -28 57 -39 40 -5 -8 -7 -45 -3
-81 5 -62 4 -68 -16 -78 -22 -12 -40 -7 -99 30 -21 13 -24 12 -40 -8 -13 -16
-30 -22 -68 -25 l-52 -3 -5 80 c-3 55 -12 95 -28 127 -27 56 -21 68 52 99 57
25 87 55 95 95 7 35 -14 59 -44 50 -14 -5 -21 -19 -26 -53 -3 -25 -11 -52 -17
-59 -18 -22 -58 -16 -84 12 l-25 27 -25 -27 c-28 -30 -29 -30 -105 -14 l-55
11 3 71 c3 39 8 79 13 89 7 12 6 17 -5 17 -25 0 -36 56 -15 77 8 8 16 6 30 -8
49 -49 109 7 83 76 -4 8 -19 22 -35 30 -111 58 -267 -80 -314 -277 -29 -123
-14 -236 48 -352 33 -63 123 -163 167 -186 14 -7 7 4 -19 25 -47 41 -74 94
-85 165 -4 25 -20 64 -38 89 -28 40 -41 92 -26 107 3 3 23 -4 44 -15 21 -12
46 -21 55 -21 18 0 67 -52 71 -73 1 -7 4 26 7 73 l6 85 32 3 c22 2 38 -3 52
-17 18 -18 21 -34 21 -113 1 -262 67 -387 257 -486 183 -95 513 -143 568 -82
26 29 5 47 -63 54 -31 4 -88 12 -125 18 -64 11 -70 14 -86 47 -10 20 -22 47
-26 61 -4 14 -14 33 -22 42 -20 22 -10 35 33 47 49 14 106 -6 196 -67 101 -69
149 -82 96 -25 -48 51 -13 123 59 123 30 0 34 -3 27 -17 -4 -10 -8 -35 -8 -55
0 -80 98 -138 231 -138 74 0 125 19 171 62 37 37 40 48 11 48 -11 0 -34 13
-50 29 -42 42 -40 92 5 137 30 30 41 34 84 34 87 0 131 -60 110 -152 -14 -65
-50 -119 -123 -186 -121 -110 -322 -186 -525 -199 -175 -10 -424 37 -779 146
-193 60 -234 63 -353 23 -80 -26 -90 -27 -296 -27 -185 0 -211 2 -206 15 4 8
23 59 42 112 58 165 124 217 262 205 39 -3 70 -3 70 1 0 21 -59 84 -94 102
-83 40 -145 18 -261 -89 -104 -97 -195 -140 -230 -111 -18 15 -20 71 -3 88 9
9 7 12 -11 12 -15 0 -46 -24 -91 -70 -58 -59 -74 -70 -102 -70 -41 0 -58 15
-58 51 0 35 24 59 58 59 24 1 25 2 9 11 -28 16 -69 2 -134 -46 -38 -28 -72
-45 -94 -47 -33 -3 -34 -2 -31 30 2 17 1 32 -3 32 -3 0 -29 -18 -58 -39 -29
-21 -70 -46 -92 -55 -128 -53 -281 -12 -261 70 7 28 20 31 144 37 117 6 176
33 317 147 112 91 210 143 303 161 76 14 213 7 290 -16 30 -9 56 -15 58 -13 2
3 -2 18 -8 36 -10 27 -9 39 15 97 15 36 27 72 27 80 0 35 70 5 118 -49 17 -19
37 -60 46 -93 44 -157 110 -255 216 -323 60 -38 82 -32 44 13 -63 74 -104 222
-104 373 0 266 138 468 359 526 83 21 180 22 256 3z"/>
<path d="M11983 3678 c-32 -34 -56 -76 -67 -118 -4 -14 5 -2 19 25 15 28 43
67 63 88 20 20 32 37 26 37 -6 0 -24 -15 -41 -32z"/>
<path d="M11965 3238 c-29 -15 -95 -79 -107 -103 -5 -11 5 -2 23 19 18 21 53
52 78 67 43 28 48 40 6 17z"/>
<path d="M12176 2967 c-80 -97 -125 -248 -112 -377 12 -127 21 -119 21 18 0
161 19 231 90 338 24 35 42 64 40 64 -2 0 -19 -19 -39 -43z"/>
<path d="M11459 2241 c-46 -49 -101 -83 -174 -108 l-40 -13 43 5 c59 7 109 35
161 86 35 36 69 81 59 78 -2 0 -24 -22 -49 -48z"/>
<path d="M11789 2010 c-55 -59 -80 -70 -141 -63 -25 3 -48 1 -51 -4 -3 -5 25
-8 64 -8 l69 1 63 62 c34 34 58 62 52 62 -5 0 -30 -22 -56 -50z"/>
<path d="M12020 1692 c0 -22 20 -53 82 -125 32 -37 58 -73 58 -79 0 -6 3 -9 6
-6 9 10 -14 45 -68 105 -27 30 -56 69 -64 87 -7 17 -13 25 -14 18z"/>
<path d="M11645 1680 c14 -22 86 -50 127 -49 l43 1 -48 8 c-26 5 -66 18 -88
29 -22 12 -38 17 -34 11z"/>
<path d="M11639 1603 c19 -39 13 -92 -14 -118 -13 -14 -30 -25 -36 -25 -7 0
-10 -3 -7 -6 4 -3 20 2 38 11 51 26 66 94 29 136 -19 23 -20 23 -10 2z"/>
<path d="M10522 1415 c-17 -65 -62 -135 -121 -187 -25 -22 -37 -36 -26 -30 79
42 171 175 163 238 -3 25 -5 22 -16 -21z"/>
<path d="M9694 1225 c4 -11 10 -50 13 -86 6 -73 10 -80 72 -128 33 -26 40 -29
32 -13 -6 12 -24 29 -41 38 -35 21 -47 49 -54 128 -2 32 -10 64 -17 70 -9 8
-10 6 -5 -9z"/>
<path d="M11185 1098 c-26 -41 -74 -55 -117 -33 -31 15 -31 15 -13 -5 29 -32
89 -27 126 9 16 16 29 37 29 45 0 21 -2 20 -25 -16z"/>
<path d="M10715 1099 c-4 -11 -4 -36 -1 -55 9 -43 -4 -67 -65 -126 -27 -26
-49 -52 -49 -56 0 -14 120 104 122 119 2 20 3 139 1 139 -1 0 -5 -9 -8 -21z"/>
<path d="M10990 1029 c12 -23 26 -63 30 -88 l8 -46 1 40 c1 41 -28 117 -49
130 -6 4 -2 -12 10 -36z"/>
<path d="M9476 807 c-29 -28 -55 -62 -58 -75 -9 -31 -5 -28 28 24 16 25 47 59
68 75 22 16 34 29 27 29 -7 0 -36 -24 -65 -53z"/>
<path d="M9060 779 c-36 -15 -88 -57 -101 -82 -9 -17 -4 -15 22 10 19 17 54
43 79 57 45 26 46 33 0 15z"/>
<path d="M11275 710 c-36 -40 -13 -108 48 -145 37 -22 46 -13 10 10 -63 40
-81 97 -43 135 11 11 16 20 12 20 -5 0 -17 -9 -27 -20z"/>
<path d="M10999 666 c24 -15 68 -49 98 -76 30 -28 59 -50 65 -50 6 0 -7 13
-28 29 -21 15 -48 38 -59 51 -27 30 -65 56 -95 64 -15 5 -7 -3 19 -18z"/>
<path d="M9942 638 c-34 -5 -85 -18 -114 -29 -56 -22 -149 -80 -170 -107 -7
-9 3 -5 22 9 115 86 245 123 400 116 58 -2 94 -1 80 3 -46 13 -154 17 -218 8z"/>
</g>
</svg>
